<mxfile host="65bd71144e">
    <diagram id="MZcG1bfjfExU0vlx5_hH" name="Page-1">
        <mxGraphModel dx="1252" dy="498" grid="1" gridSize="10" guides="1" tooltips="1" connect="1" arrows="1" fold="1" page="1" pageScale="1" pageWidth="850" pageHeight="1100" math="0" shadow="0">
            <root>
                <mxCell id="0"/>
                <mxCell id="1" parent="0"/>
                <mxCell id="12" value="" style="shape=cube;whiteSpace=wrap;html=1;boundedLbl=1;backgroundOutline=1;darkOpacity=0.05;darkOpacity2=0.1;" vertex="1" parent="1">
                    <mxGeometry x="300" y="250" width="30" height="90" as="geometry"/>
                </mxCell>
                <mxCell id="4" value="" style="shape=cube;whiteSpace=wrap;html=1;boundedLbl=1;backgroundOutline=1;darkOpacity=0.05;darkOpacity2=0.1;" vertex="1" parent="1">
                    <mxGeometry x="240" y="240" width="90" height="30" as="geometry"/>
                </mxCell>
                <mxCell id="5" value="" style="shape=cube;whiteSpace=wrap;html=1;boundedLbl=1;backgroundOutline=1;darkOpacity=0.05;darkOpacity2=0.1;rotation=0;size=20;" vertex="1" parent="1">
                    <mxGeometry x="240" y="210" width="370" height="50" as="geometry"/>
                </mxCell>
                <mxCell id="6" value="" style="shape=cube;whiteSpace=wrap;html=1;boundedLbl=1;backgroundOutline=1;darkOpacity=0.05;darkOpacity2=0.1;" vertex="1" parent="1">
                    <mxGeometry x="240" y="200" width="90" height="30" as="geometry"/>
                </mxCell>
                <mxCell id="9" value="" style="endArrow=none;dashed=1;html=1;dashPattern=1 3;strokeWidth=2;" edge="1" parent="1">
                    <mxGeometry width="50" height="50" relative="1" as="geometry">
                        <mxPoint x="260" y="244" as="sourcePoint"/>
                        <mxPoint x="360" y="244" as="targetPoint"/>
                    </mxGeometry>
                </mxCell>
                <mxCell id="10" value="" style="shape=cube;whiteSpace=wrap;html=1;boundedLbl=1;backgroundOutline=1;darkOpacity=0.05;darkOpacity2=0.1;" vertex="1" parent="1">
                    <mxGeometry x="300" y="130" width="30" height="90" as="geometry"/>
                </mxCell>
                <mxCell id="11" value="" style="shape=flexArrow;endArrow=classic;html=1;" edge="1" parent="1">
                    <mxGeometry width="50" height="50" relative="1" as="geometry">
                        <mxPoint x="314.71" y="120" as="sourcePoint"/>
                        <mxPoint x="314.71" y="50" as="targetPoint"/>
                    </mxGeometry>
                </mxCell>
                <mxCell id="14" value="" style="endArrow=none;html=1;" edge="1" parent="1">
                    <mxGeometry width="50" height="50" relative="1" as="geometry">
                        <mxPoint x="240" y="225" as="sourcePoint"/>
                        <mxPoint x="260" y="245" as="targetPoint"/>
                    </mxGeometry>
                </mxCell>
                <mxCell id="15" value="" style="shape=flexArrow;endArrow=classic;html=1;" edge="1" parent="1">
                    <mxGeometry width="50" height="50" relative="1" as="geometry">
                        <mxPoint x="314.71000000000026" y="350" as="sourcePoint"/>
                        <mxPoint x="314.71000000000026" y="420" as="targetPoint"/>
                    </mxGeometry>
                </mxCell>
            </root>
        </mxGraphModel>
    </diagram>
</mxfile>
